<?xml version="1.0" encoding="utf-8"?>
<!-- Generator: Adobe Illustrator 18.0.0, SVG Export Plug-In . SVG Version: 6.00 Build 0)  -->
<!DOCTYPE svg PUBLIC "-//W3C//DTD SVG 1.1//EN" "http://www.w3.org/Graphics/SVG/1.1/DTD/svg11.dtd">
<svg version="1.1" id="Layer_1" xmlns="http://www.w3.org/2000/svg" xmlns:xlink="http://www.w3.org/1999/xlink" x="0px" y="0px"
	 viewBox="0 0 800 800" enable-background="new 0 0 800 800" xml:space="preserve">
<g>
	<path fill="#010101" d="M401.2,203.2C197,203.2,56,355.2,31.8,552.2C28.8,576,47.5,597,71.5,597H730c24,0,42.6-21,39.7-44.7
		C745.5,355.2,605.5,203.2,401.2,203.2z M110,546c-20.4,0-37-16.6-37-37s16.6-37,37-37s37,16.6,37,37S130.4,546,110,546z
		 M169.5,434.5c-20.4,0-37-16.6-37-37s16.6-37,37-37s37,16.6,37,37S189.9,434.5,169.5,434.5z M275.5,341.5c-20.4,0-37-16.6-37-37
		s16.6-37,37-37s37,16.6,37,37S295.9,341.5,275.5,341.5z M354.2,561.9L306,362l270,199.9H354.2z"/>
</g>
</svg>
